<svg xmlns="http://www.w3.org/2000/svg" viewBox="0 0 105.17 97"><defs><style>.cls-1{isolation:isolate;}.cls-2{opacity:0.31;mix-blend-mode:multiply;}.cls-3{fill:#efce4a;}.cls-4{fill:#e59945;}.cls-5{fill:#fff;}</style></defs><title>drawer-toggle</title><g class="cls-1"><g id="Layer_2" data-name="Layer 2"><g id="_3_open-drawer" data-name="3 open-drawer"><g class="cls-2"><rect x="67.77" y="19.35" width="37.4" height="61.3"/><rect x="15.65" y="19.35" width="33.23" height="61.3"/></g><rect class="cls-3" x="64.77" y="16.35" width="37.4" height="61.3"/><rect class="cls-3" x="12.65" y="16.35" width="33.23" height="61.3"/><g class="cls-2"><rect x="3" y="3" width="85.83" height="94"/></g><rect class="cls-4" width="85.83" height="94"/><path class="cls-5" d="M72.85,12.75a2,2,0,0,0-1.65-.47L32.38,18.42a2,2,0,0,0-1.72,2V60.65a13.82,13.82,0,0,0-9.2-3.43c-7.32,0-13.28,5.5-13.28,12.26s6,12.26,13.28,12.26,13.1-5.35,13.27-12c0,0,0,0,0-.08V34.44L69.48,29V48.39A13.82,13.82,0,0,0,60.28,45C53,45,47,50.46,47,57.22s6,12.26,13.28,12.26S73.57,64,73.57,57.22V14.3A2,2,0,0,0,72.85,12.75Z"/></g></g></g></svg>